<svg xmlns="http://www.w3.org/2000/svg" aria-label="AutoDrive Salisbury Plain — Car Service &amp; Repair Centre" viewBox="13 198 1015 561"><path id="mark" fill="#c01418" d="M476.5 210.6c-1.6.2-7.3.9-12.5 1.5-34.8 4-79 17.5-132 40.4-15 6.5-38.2 15.6-48.3 19.1-11.3 3.8-16.3 4.6-49.2 7.5-13.2 1.1-24.6 2.6-25.3 3.2-1.5 1.2-1.3 2.5 1.8 11.1 2.5 7 2.1 11.8-1.6 16.7-4.3 5.8-4.3 5.8-37.1 5.9-32.7 0-33.3.1-33.3 5.5 0 4.7 2.6 5.3 28 5.9 12.9.4 27.8.9 33 1.2l9.5.6 6.4-7.4c24-27.9 56.6-36.8 88.5-24.4 5.3 2.1 10 2.7 34.6 4.5 80.4 5.9 184 9.4 330.1 11.1 93.9 1.1 109.8 2 137.9 7.6 23.5 4.6 42 12.1 51.8 20.9 6.1 5.5 9.1 10.7 9.9 17.3 1.3 11.1-8.1 43.6-13.2 45.6-.9.3-10.3.6-21 .6h-19.3l.1-11.8c.1-19.1-4.4-31.1-15.9-42.7-9.5-9.7-25.5-16.4-39.1-16.5-7.9 0-19.7 2.9-27.8 6.9-23.1 11.4-39.3 38.4-37.2 62 1.2 12.5 3.5 17.1 8.7 17.1 3.9 0 4.5-1.4 4.1-9-.6-15.5 5.8-32.1 16.8-43.1 19.2-19.2 46.4-20.8 63.8-3.7 9.9 9.8 13.8 24.3 10.8 40.3-.9 5-1.8 10.1-1.8 11.5l-.2 2.5 33.4-.2c26.4-.2 33.8-.6 35.5-1.6 2.5-1.7 10.3-16.3 14.1-26.2 6.7-17.8 8.4-36 4.5-47.2-4.4-12.5-16.3-23.4-36.5-33.3-26.5-13.1-54.3-19-117-25-44.1-4.2-50.6-5-54-6.8-1.6-.8-10.6-6.8-20-13.2-49.2-34-83.4-48.5-126-53.5-11.6-1.3-46.1-1.9-55-.9m47.6 22.5c40.3 4.1 73.8 17.6 126.5 51 21.6 13.8 21.4 14.2-7.3 14-46.2-.2-156.1-4.4-199.3-7.6-39.9-2.9-123-10.2-123.6-10.8-.5-.5 29.1-13.1 47.1-20.1 36.9-14.2 72.4-23.4 102.5-26.5 12.3-1.2 42.1-1.3 54.1 0M267.4 306c-12.5 1.9-23.2 7.5-33.2 17.3-6.4 6.3-12.9 16-15.3 23-.8 2.2-2 4.2-2.9 4.7-.8.4-15 1-31.5 1.4-48.5 1.1-69.6 2.3-71.7 4.3-2.1 1.9-2.3 3.3-.5 5.7 1.9 2.6 10.3 3.4 51.7 5.1 20.6.8 40.1 1.7 43.3 2.1l5.7.6v3.8c0 2.2.5 6.2 1.1 9s.9 5.3.7 5.5c-.1.1-14.2.8-31.3 1.4-48.3 1.7-89.7 4.2-92.5 5.5-3.4 1.5-3.8 5.1-.8 7 1.9 1.2 10.4 1.6 46.3 2.5 24.2.6 52.3 1.1 62.5 1.1s20.1.5 22 1c2.3.6 4.4 2.3 6 4.7 1.4 2 5.1 5.8 8.3 8.5 11 9.1 22 13.1 35.9 13 15-.1 29-5.7 40.2-16.2 6.5-6.1 13.8-15.8 12.9-17.3-.2-.4-9.3-.7-20.1-.7s-21.4-.5-23.4-1c-10.5-3-18.8-14.8-18.8-27 0-3.6.7-8.7 1.6-11.3 2.1-6.2 8.7-13.5 14.9-16.3 4.8-2.3 6-2.4 26.7-2.4 14.1 0 21.9-.4 22.3-1.1 2-3.2-13.2-20.7-23-26.5-10.5-6.1-25.7-9.2-37.1-7.4"/><path id="word-auto" fill="#0e0e0e" d="M106.7 450.8c-1 .4-6.9 9.8-13.1 20.7-6.2 11-24 42.5-39.6 70-15.5 27.5-28.5 50.3-28.7 50.7-.2.5 7.7.8 17.6.8h18l7.3-14 7.3-14h29.3c22.6 0 29.2.3 29.3 1.2 0 .7 1 6.9 2.2 13.8l2.2 12.5 16.8.3 16.7.2v-2.4c0-2.3-2-12.8-19.3-102.6l-7.2-37.5-18.5-.2c-10.2-.1-19.3.1-20.3.5m17.7 59.9c2.5 14.4 4.6 26.4 4.6 26.7s-8.5.6-19 .6c-10.4 0-19-.3-19-.7 0-.3 5.3-10.6 11.9-22.7 6.5-12.2 12.8-24.1 14-26.4 1.3-2.4 2.4-4.2 2.6-4 .2.1 2.4 12.1 4.9 26.5m208.7-41.5c-1.2 6.2-2.4 12.3-2.6 13.5-.5 2.2-1 2.3-8.8 2.3h-8.4l-1.6 7.7c-.9 4.3-2 9.9-2.3 12.5l-.7 4.8h8.2c5.8 0 8.1.4 8.1 1.2 0 .7-2 11.9-4.5 24.8-6.5 34.2-6.2 42.6 2.4 51.2 6.2 6.2 13.1 8.3 25 7.5 8-.4 20.3-3.6 22.5-5.7.5-.5 1.5-4.6 2.2-9.2s1.6-10.2 1.9-12.6l.8-4.2-4.9 2c-6.5 2.8-12.6 3.6-16.4 2-6.3-2.6-6.3-5.2-.7-34.5l4.2-22 15.5-.5 15.5-.5 1.7-8.5c.9-4.7 2-10.2 2.3-12.3l.7-3.7h-15.1c-17.7 0-16.3 1.7-12.7-15.8l2.3-11.2h-32.4zm109 13.8c-32.8 6.9-55.1 34-55.1 67 0 30.1 19.9 46.7 53.5 44.7 15.9-1 27.4-5.4 39.7-15.3 16.3-13.1 25.6-34.3 24.6-55.9-.7-14.1-3.2-20.1-11.7-28.6-5.4-5.3-7.9-7-14.1-9.4-6.5-2.4-9.1-2.8-20-3.1-6.9-.2-14.5.1-16.9.6m19.3 27.1c4.5 2.4 8.7 7.4 10.1 12.3 1.9 6.3 1.9 10.7 0 18.1-4.2 16-12.6 25-25.6 27.5-12.8 2.4-23.5-3.9-25.9-15.4-2.9-14.2 4.4-32.7 15.8-39.8 7.4-4.5 19.4-5.8 25.6-2.7m-264.9-22.9c-.3 1.3-3.3 16.5-6.7 33.8-8.9 45.2-8.7 56.1 1.2 65.8 5.9 5.7 11.3 7.6 22.5 8 14.6.6 23.9-2.8 34.7-12.6l4.1-3.7-.6 3.7c-.4 2.1-1 5.4-1.3 7.3l-.6 3.6 15.7-.3 15.8-.3 2.8-14.5c1.5-8 4.1-21.7 5.8-30.5 5-26.6 11.1-57.9 11.6-60.3l.5-2.2h-32.5l-5.9 31.2c-3.2 17.2-6.7 33.3-7.8 35.8-4.1 9.7-13.6 16-24.3 16-7.9 0-11.7-2.3-14-8.5l-1.8-4.6 6.2-32.2c3.5-17.7 6.5-33.4 6.8-35l.6-2.7h-16.2c-15.8 0-16.1 0-16.6 2.2"/><path id="word-drive" fill="#c01418" d="M782.5 440.2c-7.6 2.7-14.5 11.9-14.5 19.1 0 3.9 2.3 8.8 5.4 11.6 3.9 3.7 12.6 4.1 18.6.9 6.4-3.4 11-10.5 11-16.8 0-6.5-1.2-9.3-5.4-12.5-4.1-3.1-10.4-4.1-15.1-2.3m-242.4 15c-.6 2.9-2 10-3.1 15.8-3.1 16.8-18.7 97.8-21 108.8-1.1 5.5-2 10.8-2 11.7 0 1.6 2.5 1.7 35.8 1.2 37.1-.5 42.6-1.1 55.2-5.5 35.2-12.3 58-45.1 58-83.2 0-8.5-2.7-20.5-6.1-27.1-3.6-7.1-12.2-15.3-20.2-19.3-13.4-6.7-15-6.9-57.4-7.4l-38.1-.4zm72.7 26.2c11.4 5.3 16.5 14.3 16.4 28.7-.4 25.3-15.5 46-38.2 52.2-3.2.9-12.4 1.8-21.7 2.2-13.9.6-16.4.5-16.9-.8-.3-.8 2-14.5 5.1-30.3 3-15.9 6.3-32.5 7.1-36.9s2-10.4 2.5-13.3l1.1-5.4 19.1.4c18.7.3 19.4.4 25.5 3.2m350.3 1.7c-12.9 1.9-28.1 10.2-36.5 20-25.3 29.4-22.2 73.5 6.1 86.6 21.2 9.8 50.3 5.3 67.3-10.3 3.3-3.1 6-6.1 6-6.8 0-1.2-15.3-12.6-16.9-12.6-.4 0-1.6.9-2.7 2.1-3.8 4.2-11.4 7.2-19.4 7.7-9.2.5-14.9-.9-19.6-5-4.2-3.7-6.1-7.2-7-12.7l-.7-4.1h74l1.2-5.7c.6-3.1 1.1-9.9 1.1-15.2 0-16.7-5.1-28.6-15.8-36.8-8-6.1-23.9-9.1-37.1-7.2m17.4 26.2c4.9 2.7 8.5 9.2 8.5 15.4v4.3h-22.5c-24.9 0-24.2.2-20.8-6.3 4.1-8.1 10.1-13.1 18.1-15.3 5.8-1.7 11.4-1 16.7 1.9M733 483.9c-5.3 1.7-10.9 5.2-16.5 10.4l-5.7 5.5.6-3.7c.3-2 .9-5.3 1.2-7.4l.7-3.7h-15.7c-8.6 0-15.6.1-15.6.2 0 .2-2.1 11.1-4.6 24.3s-5.8 31-7.4 39.5-4.1 21.1-5.5 28-2.5 13.3-2.5 14.3c0 1.6 1.2 1.7 15.7 1.5l15.7-.3 1.3-6.5c7.8-40.6 10.7-54.2 12.5-57.9 4.9-10.2 15.5-16.6 27.3-16.4 3.9.1 7.9.3 9 .5 1.7.3 2.2-1.1 4.6-13.7 2.1-10.5 2.5-14.1 1.6-14.7-1.5-1-13.4-.9-16.7.1m30.6 2.8c-.2 1-.9 4.3-1.5 7.3s-5.1 26.2-10.1 51.6c-4.9 25.3-9 46.3-9 46.7 0 1.1 30.8.8 31.5-.2.5-1 5.9-27.7 15.5-77.1 2.8-14.6 5.3-27.3 5.6-28.3.5-1.6-.7-1.7-15.5-1.7-14.3 0-16 .2-16.5 1.7m44.4-1.1c0 .6 10.4 59.5 15.5 87.3 1.9 10.7 3.5 19.6 3.5 19.8 0 .1 7.8.3 17.4.3h17.4l3.5-6.3c1.9-3.4 11.2-20.2 20.7-37.2 9.6-17.1 21.5-38.5 26.6-47.8l9.2-16.7h-33.3l-18.9 37.5c-10.5 20.6-19.1 37.3-19.3 37.1s-1.3-7.5-2.3-16.2c-1-8.8-2.8-23.3-3.9-32.4-1.2-9.1-2.4-18.6-2.7-21.3l-.6-4.7h-16.4c-9 0-16.4.3-16.4.6"/><path id="sub-salisbury" fill="#0e0e0e" d="M125.1 629.8c-4.9 2.4-7.4 6.3-7.5 11.5-.2 8.1 3.6 11.9 15.3 15.6 9.6 3 12.1 6.1 8.1 10.1-3.3 3.3-10.6 2.8-15.4-1.1l-3.8-3.2-2.9 3c-3.7 3.6-3.1 5.5 2.7 8.9 8 4.7 20.4 4.2 26.3-1 2.7-2.4 5.1-7.5 5.1-10.7 0-3.6-3.1-8.8-6.4-10.8-1.7-1.1-6-2.9-9.5-4-7.8-2.5-9.1-3.6-9.1-7.1 0-5.6 9.9-6.2 15.5-1l2.1 2 3.2-3.3 3.2-3.3-2.2-2.1c-4.1-3.9-8.1-5.3-14.8-5.3-4.2 0-7.7.6-9.9 1.8m205.2.1c-4.9 2.3-7.3 6.2-7.3 12 0 8.1 3 11.1 15.3 15.1 3.7 1.2 7.4 2.8 8.2 3.7 3.7 3.7-.1 8.3-6.8 8.3-4.2 0-7-1.2-10.3-4.2-2.2-2-2.2-1.9-5.5 1.1l-3.4 3.1 3.7 3.4c8.7 8.2 26.1 7.3 31.6-1.6 2.9-4.7 2.9-10.5-.1-14.9-1.7-2.6-4-4.1-9.7-6.3-12.1-4.6-12.5-4.8-12.5-8.1 0-5.9 10.2-6.9 15-1.5 1.9 2 1.9 2 5.2-1.2l3.3-3.2-2.3-2.4a16 16 0 0 0-5.4-3.8c-4.7-2-14-1.7-19 .5M187 631.2c-.5 1.3-4.4 11.1-8.5 21.8-4.2 10.7-8 20.5-8.5 21.7-.9 2.2-.8 2.3 4.3 2.3h5.2l1.8-5 1.8-5h19.7l1.8 5 1.8 5H217l-2-5.3c-1.1-2.8-5.2-13.5-9.3-23.7l-7.2-18.5-5.3-.3c-4.6-.3-5.3-.1-6.2 2m9.3 18c1.5 4 2.7 7.9 2.7 8.5 0 .9-1.9 1.3-6 1.3-3.7 0-6-.4-6-1.1 0-1.8 5.2-15.9 5.9-15.9.4 0 1.9 3.3 3.4 7.2M237 653v24h32v-9h-22v-39h-10zm53 0v24h10v-48h-10zm89-.1V677h13.3c10.8 0 14-.4 17.4-1.9 4.9-2.3 7.3-6.2 7.3-12.2 0-3.5-.6-4.8-3.8-7.9-3.3-3.4-3.6-3.9-2.1-4.8 2.4-1.5 4.2-7.7 3.5-11.6-.3-1.8-2-4.6-3.7-6.2-3-2.9-3.1-2.9-17.5-3.2l-14.4-.3zm24.2-14.2c1 .9 1.8 2.6 1.8 3.9 0 4-2.5 5.4-9.6 5.4H389v-11h6.2c4.3 0 6.7.5 8 1.7m2.4 19.8c.8 1 1.4 2.8 1.4 4 0 4.5-2.3 5.9-10.4 6.3l-7.6.4v-13.4l7.6.4c6 .3 7.9.7 9 2.3m32.6-11.8c.3 15.9.6 18.2 2.5 21.9 2.8 5.3 8.2 8.5 15.4 9.1 6.5.6 11.7-.8 16-4.4 5.7-4.8 6.3-7.1 6.7-26.6l.4-17.7h-10.1l-.3 17.1-.3 17.1-3.3 2.9c-5.3 4.7-12.7 3.5-15.7-2.6-1.1-2.6-1.5-6.9-1.5-18.9V629h-10.2zm63.3 6.3v24h9.4l.3-8.3.3-8.2h4c3.9 0 4.1.1 8.9 8.2l4.9 8.3h10.8l-1.6-3c-.9-1.7-3.3-5.8-5.5-9.2l-3.9-6.2 2.9-1.8c1.6-.9 3.6-3.1 4.5-4.7 2.1-4.2 1.9-12.9-.4-16.7-3.2-5.2-7.2-6.4-21.8-6.4h-12.9zm24.9-14.1c1 .8 1.6 2.9 1.6 5.1 0 5.7-3.6 8.2-10.9 7.8l-5.6-.3-.3-5.9c-.5-8.7-.3-8.9 7.2-8.4 3.5.2 7.1 1 8 1.7m30.6-9.3c0 .3 3.8 6.9 8.5 14.8l8.5 14.2V677h9v-18.2l8.7-14.1c4.7-7.8 8.8-14.5 9-15 .2-.4-2-.7-5-.7h-5.5l-5.7 9.6-5.7 9.5-5.6-9.5-5.6-9.6h-5.3c-2.9 0-5.3.3-5.3.6m92 23.4v24h10v-16h7.3c13.1 0 19.1-5.8 18.5-17.7-.3-4.9-.9-6.8-2.8-8.9-4.5-4.7-7-5.4-20.5-5.4H649zm21.7-14.9c3.5 1.3 4.3 2.5 4.3 7 0 5.7-2.6 7.3-11.7 7l-4.3-.1v-15h4.4c2.5 0 5.7.5 7.3 1.1M706 653v24h16.5c17.9 0 17.1.3 15.9-5.9l-.6-3.1H716v-39h-10zm59.2-1c-5.1 12.7-9.2 23.5-9.2 24 0 .6 2.2 1 4.9 1h4.9l1.7-5 1.7-5.1 10.1.3 10.1.3 1.7 4.5c1.6 4.5 1.7 4.5 6.8 4.8 2.8.2 5.1.1 5.1-.2s-2.5-6.9-5.6-14.8c-3-7.9-7.1-18.5-9.1-23.6l-3.6-9.2h-10.4zm20.2 6.2c-.7 1-9.5 1-11.1 0-1-.6-.5-2.8 1.9-9.1l3.2-8.4 3.2 8.4c1.8 4.6 3 8.7 2.8 9.1M823 653v24h10v-48h-10zm33 0v24h9.9l.3-15.3.3-15.2 11 15.2 11 15.3h9.5v-48h-9.9l-.3 15.2-.3 15.2-11-15.2-11-15.1-4.7-.1H856z"/><path id="sub-tagline" fill="#0e0e0e" d="M76.4 712.9C60 720.3 65.3 747 83.2 747c5.3 0 9.2-1.6 12.3-5l2-2.2-2.3-1.9c-2.3-1.8-2.4-1.8-5.2.2-6.9 5.1-16 .5-16-8.2 0-9.9 8.4-15.3 15.3-9.9 3.1 2.5 3.9 2.5 6.2 0 1.5-1.7 1.6-2.2.4-3.6-2-2.4-8.8-5.4-12.4-5.4-1.6 0-4.8.9-7.1 1.9m133.9-.4c-4 1.7-6.9 7.1-5.9 10.9 1 3.9 3.7 6.2 10.5 8.6 3.3 1.2 6.2 2.8 6.5 3.6 2.1 5.5-6.6 7.2-12 2.3-2-1.9-2.1-1.9-4.3.5-1.3 1.4-2 2.9-1.6 3.5 1.4 2.4 8.6 5.1 13.4 5.1 4.2 0 5.6-.5 8.3-2.9 2.8-2.5 3.3-3.6 3.3-7.5 0-5.6-1.5-7.3-9.8-10.6-5.3-2.1-6.2-2.9-6.2-5s.5-2.6 3.3-2.8c1.9-.2 4.4.4 5.9 1.3 2.4 1.6 2.6 1.6 4.6-.3 1.8-1.8 1.9-2.3.6-3.8-3.4-4.1-10.9-5.4-16.6-2.9m174.3-.5c-12.9 4.1-15.7 24.1-4.4 32.1 4.4 3.2 13 3.7 17.7 1.1 5.2-2.8 6.1-4.9 3.2-7.3-2.3-1.9-2.3-1.9-4.8.1-3.1 2.4-9 2.6-12 .5-2.7-1.9-4.5-8.1-3.7-12.4.8-3.9 5.6-8.1 9.2-8.1 1.5 0 4.2.9 6.1 2.1 3.3 2 3.4 2 5.3.2 1-1.1 1.6-2.6 1.3-3.4-1.5-3.9-12-6.8-17.9-4.9m88.5 1.6A9.14 9.14 0 0 0 471 725c.8 1.5.4 2.5-2 4.9-6.7 6.7-2.2 17.1 7.5 17.1 2.5 0 5.9-.7 7.4-1.5 2.6-1.3 3-1.3 4.1 0 1.2 1.4 8 2.2 8 .9 0-.3-1.2-2-2.6-3.9-2.3-3.1-2.4-3.6-1.1-6.2.8-1.5 1.8-3.8 2.1-5.1.7-1.9.4-2.2-2.4-2.2-2.4 0-3.3.6-4.1 2.7l-1.1 2.8-2.3-2.7-2.4-2.8 3-2.9c4.1-4.1 4-9-.2-12.5-1.7-1.5-4.3-2.6-5.9-2.6s-4.2 1.1-5.9 2.6m8.6 5c.8 2-.8 4.8-3 5.2-1.8.4-3.4-3.9-2.2-5.7 1-1.7 4.5-1.3 5.2.5m-2 17.3c2.7 3.2 3 4 1.7 4.5-4.5 1.7-8.4-.1-8.4-3.9 0-2 1.7-4.5 3-4.5.3 0 2 1.8 3.7 3.9M755 713.2c-12.9 6.6-12.8 25.6.2 32.4 5.3 2.8 14 1.4 18.6-2.8 2.8-2.7 2.8-3.2-.4-5.3-2.5-1.6-2.7-1.6-4.9.5-5.9 5.5-15.5.5-15.5-8.1 0-9.9 8.4-15.3 15.3-9.9 2.5 2 2.8 2 5.1.4 2.1-1.3 2.4-1.9 1.5-3.6-1.3-2.5-8.4-5.7-12.4-5.8-1.7 0-5.1 1-7.5 2.2m-642.8 14c-8.3 21.5-8 19.8-3.8 19.8 3.3 0 3.8-.4 5.2-4l1.6-4H128l1.7 3.7c1.5 3.1 2.4 3.9 5.1 4.1 4.1.4 4.3 1.9-3.3-18.6l-6-16.2h-7.4zm12 .5c1 2.6 1.6 4.8 1.4 5.1-.2.2-2.2.2-4.4 0l-3.9-.3 2-5.3c1.1-2.9 2.2-5 2.6-4.7.3.3 1.3 2.7 2.3 5.2m24.8 1.7V747h7v-6.5c0-6.2.1-6.5 2.4-6.5 1.9 0 3.2 1.4 6.2 6.5 3.5 5.9 4.1 6.5 7 6.5 1.8 0 3.5-.3 3.7-.8.2-.4-1.2-3.4-3.2-6.6l-3.6-5.9 2.7-2.7c4.8-4.8 4.9-10.4.4-15.7-2.3-2.7-2.9-2.8-12.5-3.1l-10.1-.4zm16.1-10.4c2.2 1.2 2.6 5.9.7 7.8-.7.7-3.1 1.2-5.5 1.2H156v-10h3.6c1.9 0 4.4.5 5.5 1m75.1 10.2.3 17.3h23v-6l-8.2-.3-8.3-.3V732h14v-3c0-2.9 0-2.9-6.7-3.2l-6.8-.3-.3-3.8-.3-3.7H263v-6h-23zm35.6-7.5c-.2 5.4-.2 13.3 0 17.6l.3 7.8 3.2-.3c2.9-.3 3.2-.6 3.3-3.8.2-8.8.3-9 2.8-9 1.9 0 3.1 1.3 5.8 6.2 3.2 5.8 3.8 6.3 7.1 6.6 2.1.2 3.7-.1 3.7-.7s-1.5-3.6-3.4-6.8l-3.4-5.7 2.9-2.7c2.4-2.2 2.9-3.5 2.9-7.4 0-9-3.6-11.5-16.4-11.5h-8.5zm16.3-2.7c2.2 1.2 2.6 5.9.7 7.8-.7.7-3.1 1.2-5.5 1.2H283v-10h3.6c1.9 0 4.4.5 5.5 1m20.5-.3c1.4 3.8 3.5 9.5 4.8 12.8s3.1 8.2 4.1 10.8c1.6 4.6 1.8 4.8 5.2 4.5 3.5-.3 3.6-.5 6.8-9.3 1.8-5 4.7-12.7 6.4-17.3l3-8.2h-7.6l-3.2 9.2c-6 17.2-5.1 16.9-10 3l-4.3-12.2h-7.7zm41.4 10.9v17.5l3.3-.3 3.2-.3.3-17.3.2-17.2h-7zm61.2-.4.3 17.3 11.3.3 11.2.3V740h-16v-8h14v-6h-14v-8h16v-6h-23zm110 0 .3 17.3 3.2.3 3.2.3.3-6.3c.3-5.9.4-6.3 2.7-6.3 1.9 0 3.2 1.3 6.1 6 3.3 5.4 4 6 7.3 6.3 2 .2 3.7-.1 3.7-.5 0-.5-1.6-3.6-3.6-6.8-3.4-5.8-3.5-6-1.6-7.5 6-4.9 5.6-14.6-.8-18.3-2.1-1.3-5.2-1.7-11.9-1.7H525zm17.2-9.6c3.9 3.9.7 8.4-6 8.4H532v-10h4.4c2.7 0 5.1.6 6 1.6m20.8 9.6.3 17.3 11.3.3 11.2.3V740h-16v-8h14v-6h-14v-8h16v-6h-23zm34.8.3v17.6l3.3-.3c3.2-.3 3.2-.4 3.5-5.9l.3-5.7 6-.4c7.8-.6 11-3.4 11.7-10.6.4-4.4.1-5.3-2.6-8.3-3-3.4-3.2-3.4-12.6-3.7l-9.6-.4zm15.8-9.9c4.7 3.3 1.5 9.4-5 9.4H605v-11h3.3c1.8 0 4.3.7 5.5 1.6m22.2 3.1c-2.4 5.9-5.1 13-6 15.8-1 2.7-2.1 5.8-2.5 6.8-.7 1.6-.3 1.8 3 1.5 3.4-.3 4-.7 5-3.8l1.2-3.5h13.6l1.2 3.5c1 3 1.6 3.5 4.8 3.8 2 .2 3.7 0 3.7-.4 0-.7-2.8-8.5-8.7-23.9-3.8-10-3.8-10-7.5-10.3l-3.6-.3zm9.8 3.8c.5 1.6 1.3 3.8 1.7 4.7.6 1.6.1 1.8-3.8 1.8h-4.5l2.1-5.5c2.1-5.8 2.7-6 4.5-1m25.2 3.1v17.5l3.3-.3 3.2-.3.3-17.3.2-17.2h-7zm20 0v17.5l3.3-.3 3.2-.3.3-6.3c.3-6.2.4-6.3 2.9-6 2.1.2 3.4 1.6 6.1 6.5 3.1 5.8 3.6 6.3 6.8 6.3 4.3 0 4.3-1 0-7.9l-3.4-5.5 2.4-1.8c5.4-4.3 4.9-14.3-.9-17.8-2.5-1.6-5-2-11.9-2H691zm16.1-10.6c2.2 1.2 2.6 5.9.7 7.8-.7.7-3.1 1.2-5.5 1.2H698v-10h3.6c1.9 0 4.4.5 5.5 1m79.1 10.2.3 17.3 11.3.3 11.2.3V740h-16v-8h14v-3c0-2.9 0-2.9-6.7-3.2l-6.8-.3v-7l7.8-.3 7.7-.3V712h-23zm35 0 .3 17.3h6l.3-10.8.3-10.9 8.1 11.1c7 9.7 8.4 11.1 10.9 11.1h2.9v-35h-7l-.1 10.7v10.8L841 731c-1-1.4-4.6-6.2-7.9-10.8-5.3-7.1-6.5-8.2-9.1-8.2h-3zM861 715c0 2.9.1 3 5 3h4.9l.3 14.2.3 14.3 3.3.3 3.2.3V718h5c4.9 0 5-.1 5-3v-3h-27zm37.2 14.2.3 17.3h6.7l.2-6c.2-5.6.3-6 2.6-6 2.4 0 4.2 2 8.2 9.4 1.4 2.6 2.3 3.1 5.3 3.1 1.9 0 3.5-.3 3.5-.8 0-.4-1.6-3.4-3.6-6.6-3.5-5.9-3.5-6-1.6-7.5 6.1-4.9 5.3-15.9-1.3-18.9-1.4-.7-6.6-1.2-11.6-1.2H898zm17.2-9.6c3.8 3.7.7 8.4-5.5 8.4H906v-10h3.9c2.3 0 4.6.7 5.5 1.6m21.8 9.6.3 17.3 11.3.3 11.2.3V740h-16v-8h14v-6h-14v-8h16v-6h-23z"/></svg>